<?xml version="1.0" encoding="iso-8859-1"?>
<!-- Uploaded to: SVG Repo, www.svgrepo.com, Generator: SVG Repo Mixer Tools -->
<svg height="800px" width="800px" version="1.1" id="Layer_1" xmlns="http://www.w3.org/2000/svg" xmlns:xlink="http://www.w3.org/1999/xlink" 
	 viewBox="0 0 510.293 510.293" xml:space="preserve">
<g transform="translate(1 1)">
	<path style="fill:#FFE100;" d="M332.227,171.373c0,89.6-72.533,162.133-162.133,162.133S7.96,260.973,7.96,171.373
		S80.493,9.24,170.093,9.24C259.693,9.24,332.227,82.627,332.227,171.373"/>
	<path style="fill:#FFA800;" d="M170.093,9.24c-4.267,0-8.533,0-12.8,0.853c83.627,6.827,149.333,76.8,149.333,161.28
		c0,50.347-23.04,104.96-59.733,134.827c-24.747,20.48-55.467,24.747-89.6,27.307c4.267,0,8.533,0.853,12.8,0.853
		c89.6,0,162.133-72.533,162.133-162.133S259.693,9.24,170.093,9.24"/>
	<g>
		<path style="fill:#63D3FD;" d="M255.427,307.053c12.8-7.68,23.893-17.067,34.133-28.16v-143.36h-34.133V307.053z"/>
		<path style="fill:#63D3FD;" d="M187.16,330.947c11.947-0.853,23.04-3.413,34.133-7.68V178.2H187.16V330.947z"/>
	</g>
	<path style="fill:#FFFFFF;" d="M33.56,171.373c0-85.333,65.707-155.307,149.333-161.28c-4.267,0-8.533-0.853-12.8-0.853
		C80.493,9.24,7.96,81.773,7.96,171.373s72.533,162.133,162.133,162.133c4.267,0,8.533,0,12.8-0.853
		c-33.28-2.56-64.853-6.827-89.6-27.307C56.6,276.333,33.56,222.573,33.56,171.373"/>
	<g>
		<path style="fill:#63D3FD;" d="M118.893,323.267c11.093,3.413,22.187,5.973,34.133,7.68v-110.08h-34.133V323.267z"/>
		<path style="fill:#63D3FD;" d="M50.627,278.893c10.24,11.093,21.333,20.48,34.133,28.16V118.467H50.627V278.893z"/>
	</g>
	<path style="fill:#FDCC00;" d="M296.387,273.773c-6.827,8.533-15.36,17.067-23.893,23.893l73.387,73.387l23.893-23.893
		L296.387,273.773z"/>
	<path style="fill:#00DA6C;" d="M489.24,492.227L489.24,492.227c-13.653,13.653-34.987,13.653-48.64,0L333.933,383.853l48.64-48.64
		l107.52,109.227C502.893,457.24,502.893,479.427,489.24,492.227"/>
	<path style="fill:#00AD55;" d="M492.653,442.733l-107.52-109.227L374.04,344.6l96.427,98.133c13.653,13.653,13.653,34.987,0,48.64
		c-3.413,3.413-8.533,5.973-12.8,7.68c11.947,4.267,25.6,1.707,34.987-7.68C506.307,477.72,506.307,456.387,492.653,442.733"/>
	<path d="M170.093,340.333c-93.867,0-170.667-76.8-170.667-170.667S76.227-1,170.093-1S340.76,75.8,340.76,169.667
		S263.96,340.333,170.093,340.333z M170.093,16.067c-84.48,0-153.6,69.12-153.6,153.6s69.12,153.6,153.6,153.6
		s153.6-69.12,153.6-153.6S254.573,16.067,170.093,16.067z"/>
	<path d="M465.347,509.293c-11.093,0-22.187-4.267-29.867-12.8l-113.493-115.2l60.587-60.587l113.493,115.2
		c7.68,7.68,12.8,18.773,12.8,29.867c0,11.093-4.267,22.187-12.8,29.867C487.533,504.173,476.44,509.293,465.347,509.293z
		 M345.88,381.293l101.547,102.4c9.387,9.387,26.453,9.387,35.84,0c5.12-5.12,7.68-11.093,7.68-17.92s-2.56-13.653-7.68-17.92
		l-101.547-102.4L345.88,381.293z"/>
	<path d="M345.88,381.293l-86.187-86.187l7.68-5.973c8.533-6.827,16.213-14.507,23.04-23.04l5.973-7.68l86.187,86.187
		L345.88,381.293z M284.44,295.96l61.44,61.44l11.947-11.947l-61.44-61.44C292.973,288.28,288.707,292.547,284.44,295.96z"/>
	<path d="M255.427,315.587c-1.707,0-2.56,0-4.267-0.853c-2.56-1.707-4.267-4.267-4.267-7.68v-171.52c0-5.12,3.413-8.533,8.533-8.533
		h34.133c5.12,0,8.533,3.413,8.533,8.533v143.36c0,2.56-0.853,4.267-2.56,5.973c-10.24,11.947-23.04,21.333-35.84,29.867
		C258.84,315.587,257.133,315.587,255.427,315.587z M263.96,144.067V290.84c5.973-4.267,11.947-10.24,17.067-15.36V144.067H263.96z"
		/>
	<path d="M187.16,339.48c-1.707,0-4.267-0.853-5.973-2.56c-1.707-1.707-2.56-4.267-2.56-5.973V178.2c0-5.12,3.413-8.533,8.533-8.533
		h34.133c5.12,0,8.533,3.413,8.533,8.533v145.067c0,3.413-2.56,6.827-5.973,7.68c-11.947,4.267-23.893,6.827-35.84,7.68
		C188.013,339.48,187.16,339.48,187.16,339.48z M195.693,186.733v133.973c5.973-0.853,11.093-2.56,17.067-4.267V186.733H195.693z"/>
	<path d="M153.027,339.48h-0.853c-11.947-0.853-23.893-4.267-35.84-7.68c-3.413-1.707-5.973-5.12-5.973-8.533v-102.4
		c0-5.12,3.413-8.533,8.533-8.533h34.133c5.12,0,8.533,3.413,8.533,8.533v110.08c0,2.56-0.853,5.12-2.56,5.973
		C157.293,338.627,154.733,339.48,153.027,339.48z M127.427,317.293c5.973,1.707,11.093,2.56,17.067,4.267V229.4h-17.067V317.293z"
		/>
	<path d="M84.76,315.587c-1.707,0-3.413-0.853-4.267-1.707c-13.653-8.533-25.6-17.92-35.84-29.867c-1.707-0.853-2.56-2.56-2.56-5.12
		V118.467c0-5.12,3.413-8.533,8.533-8.533H84.76c5.12,0,8.533,3.413,8.533,8.533v188.587c0,3.413-1.707,5.973-4.267,7.68
		C87.32,315.587,86.467,315.587,84.76,315.587z M59.16,275.48c5.12,5.973,11.093,11.093,17.067,15.36V127H59.16V275.48z"/>
</g>
</svg>