<?xml version="1.0" encoding="iso-8859-1"?>
<!-- Uploaded to: SVG Repo, www.svgrepo.com, Generator: SVG Repo Mixer Tools -->
<svg height="800px" width="800px" version="1.1" id="Layer_1" xmlns="http://www.w3.org/2000/svg" xmlns:xlink="http://www.w3.org/1999/xlink" 
	 viewBox="0 0 512 512" xml:space="preserve">
<g>
	<g>
		<g>
			<path style="fill:#231F20;" d="M388.227,0H123.774C76.606,0,38.232,38.374,38.232,85.541v215.935
				c0,47.167,38.374,85.541,85.541,85.541h44.258l-8.727,103.571c-1.454,17.269,18.376,27.681,31.795,17.235l155.206-120.805h41.92
				c47.167,0,85.541-38.374,85.541-85.541V85.541C473.768,38.374,435.394,0,388.227,0z M434.287,301.476L434.287,301.476
				c0,25.398-20.663,46.061-46.061,46.061H339.53c-4.393,0-8.659,1.465-12.124,4.163l-124.974,97.274l5.219-61.956h16.948
				c10.902,0,19.74-8.838,19.74-19.74s-8.838-19.74-19.74-19.74c-14.158,0-92.815,0-100.824,0
				c-25.398,0-46.061-20.663-46.061-46.061V85.541c0-25.398,20.663-46.061,46.061-46.061h264.453
				c25.398,0,46.061,20.663,46.061,46.061V301.476z"/>
			<path style="fill:#231F20;" d="M158.922,139.364c-10.902,0-19.74,8.838-19.74,19.74v122.385c0,10.902,8.838,19.74,19.74,19.74
				c10.902,0,19.74-8.838,19.74-19.74V159.104C178.662,148.202,169.824,139.364,158.922,139.364z"/>
			<path style="fill:#231F20;" d="M353.078,139.362h-23.811c0-31.79-24.816-53.574-52.403-53.574
				c-27.472,0-52.403,21.655-52.403,53.574c-15.998,0-23.396,9.061-23.396,19.74v122.385c0,10.902,8.838,19.74,19.74,19.74h92.793
				c32.656,0,59.221-26.568,59.221-59.221v-82.904C372.819,148.201,363.98,139.362,353.078,139.362z M313.598,261.747h-73.052
				v-82.904c15.998,0,23.396-9.061,23.396-19.74v-20.911c0-7.125,5.797-12.922,12.922-12.922c7.125,0,12.922,5.797,12.922,12.922
				v20.911c0,10.902,8.838,19.74,19.74,19.74h23.811v63.164h0.001C333.338,252.892,324.482,261.747,313.598,261.747z"/>
		</g>
	</g>
</g>
</svg>