<svg width="58" height="46" viewBox="0 0 58 46" fill="none" xmlns="http://www.w3.org/2000/svg">
<path d="M4.19718 3.30858L3.6903 3.75583C3.70115 3.74484 3.71204 3.73389 3.72296 3.72296C4.08748 3.35845 4.48542 3.03503 4.90957 2.75571C4.66156 2.92415 4.42376 3.10866 4.19718 3.30858ZM1.51066 9.06394C1.51066 8.5195 1.56944 7.98112 1.68348 7.45728C1.57349 7.97369 1.51066 8.51554 1.51066 9.06394ZM4.23626 5.62127L3.34279 5.04164L4.37647 5.70994L27.8823 20.9071L28.7025 21.4374L29.5227 20.9071L53.0285 5.70994L54.0619 5.04178L53.1687 5.62127L28.7025 21.4936L4.23626 5.62127ZM55.8943 9.06394C55.8943 8.51567 55.8315 7.97395 55.7216 7.45765C55.8355 7.98137 55.8943 8.51963 55.8943 9.06394ZM53.682 3.72296C53.6929 3.73389 53.7038 3.74484 53.7147 3.75582L53.2078 3.30858C52.9812 3.10866 52.7434 2.92417 52.4954 2.75573C52.9196 3.03505 53.3175 3.35845 53.682 3.72296Z" fill="white" stroke="#40312C" stroke-width="3.02131"/>
</svg>
