<svg width="47" height="48" viewBox="0 0 47 48" fill="none" xmlns="http://www.w3.org/2000/svg">
<path d="M36.4203 12.2531C36.1763 12.2531 35.9423 12.1562 35.7697 11.9837C35.5972 11.8111 35.5002 11.5771 35.5002 11.3331C35.5002 11.0891 35.5972 10.8551 35.7697 10.6826C35.9423 10.51 36.1763 10.4131 36.4203 10.4131M36.4203 12.2531C36.6643 12.2531 36.8983 12.1562 37.0708 11.9837C37.2434 11.8111 37.3403 11.5771 37.3403 11.3331C37.3403 11.0891 37.2434 10.8551 37.0708 10.6826C36.8983 10.51 36.6643 10.4131 36.4203 10.4131" stroke="#40312C" stroke-width="2.39635" stroke-linecap="round" stroke-linejoin="round"/>
<path d="M1.55104 11.4689C1.55104 8.9576 2.54866 6.54914 4.32442 4.77338C6.10019 2.99761 8.50864 2 11.02 2H36.2728C37.5163 2 38.7476 2.24492 39.8964 2.72078C41.0453 3.19664 42.0891 3.89411 42.9684 4.77338C43.8476 5.65265 44.5451 6.69649 45.021 7.84532C45.4968 8.99414 45.7417 10.2254 45.7417 11.4689V36.7218C45.7417 39.2331 44.7441 41.6416 42.9684 43.4173C41.1926 45.1931 38.7841 46.1907 36.2728 46.1907H11.0163C8.50496 46.1907 6.09651 45.1931 4.32074 43.4173C2.54498 41.6416 1.54736 39.2331 1.54736 36.7218V11.4652L1.55104 11.4689Z" stroke="#40312C" stroke-width="2.39635" stroke-linecap="round" stroke-linejoin="round"/>
<path d="M14.2625 24.0957C14.2625 25.3281 14.5052 26.5483 14.9768 27.6869C15.4484 28.8254 16.1396 29.86 17.011 30.7314C17.8824 31.6028 18.917 32.294 20.0555 32.7656C21.1941 33.2372 22.4144 33.48 23.6467 33.48C24.8791 33.48 26.0994 33.2372 27.2379 32.7656C28.3765 32.294 29.411 31.6028 30.2824 30.7314C31.1538 29.86 31.845 28.8254 32.3167 27.6869C32.7883 26.5483 33.031 25.3281 33.031 24.0957C33.031 21.6068 32.0423 19.2199 30.2824 17.46C28.5225 15.7001 26.1356 14.7114 23.6467 14.7114C21.1579 14.7114 18.7709 15.7001 17.011 17.46C15.2511 19.2199 14.2625 21.6068 14.2625 24.0957Z" stroke="#40312C" stroke-width="2.39635" stroke-linecap="round" stroke-linejoin="round"/>
</svg>
