<svg width="52" height="46" viewBox="0 0 52 46" fill="none" xmlns="http://www.w3.org/2000/svg">
<mask id="path-1-inside-1_30_367" fill="white">
<path d="M50.7315 0.286599C50.569 0.146185 50.3713 0.0528753 50.1596 0.0167663C49.9479 -0.0193427 49.7304 0.0031245 49.5306 0.0817367L1.80939 18.7572C1.32292 18.946 0.911001 19.2879 0.635731 19.7312C0.360462 20.1745 0.236756 20.6953 0.283258 21.2151C0.329761 21.7349 0.543952 22.2254 0.893548 22.6129C1.24314 23.0003 1.7092 23.2636 2.22147 23.3631L15.3468 25.9391V40.5009C15.3467 41.0642 15.515 41.6147 15.8301 42.0817C16.1453 42.5487 16.5928 42.9109 17.1152 43.1217C17.4514 43.2566 17.8102 43.3261 18.1725 43.3265C18.5516 43.3257 18.9268 43.2485 19.2755 43.0996C19.6242 42.9508 19.9394 42.7332 20.2023 42.46L26.7955 35.6313L36.9209 44.511C37.4342 44.9637 38.0944 45.2147 38.7788 45.2174C39.0777 45.2161 39.3747 45.1692 39.6595 45.0785C40.1257 44.9309 40.545 44.6636 40.8755 44.3033C41.2061 43.943 41.4363 43.5023 41.5433 43.0251L51.1082 1.44042C51.1561 1.23201 51.1464 1.0145 51.08 0.811218C51.0136 0.607939 50.8931 0.426576 50.7315 0.286599ZM2.16025 21.046C2.14644 20.9321 2.1721 20.8169 2.23295 20.7196C2.2938 20.6223 2.38616 20.5489 2.49462 20.5115L43.6202 4.41681L16.0697 24.1613L2.58646 21.5146C2.47217 21.4978 2.36723 21.442 2.28951 21.3565C2.2118 21.2711 2.16611 21.1613 2.16025 21.046ZM18.8483 41.1508C18.7181 41.2849 18.5509 41.3773 18.368 41.4161C18.1851 41.4549 17.9948 41.4384 17.8213 41.3687C17.6479 41.299 17.499 41.1793 17.3938 41.0247C17.2886 40.8702 17.2318 40.6878 17.2306 40.5009V27.2437L25.3733 34.3785L18.8483 41.1508ZM39.7066 42.5966C39.6702 42.7565 39.5926 42.9041 39.4816 43.0248C39.3706 43.1456 39.23 43.2352 39.0738 43.2849C38.9175 43.3346 38.7509 43.3427 38.5906 43.3083C38.4302 43.2739 38.2816 43.1982 38.1595 43.0887L17.8028 25.2374L48.8147 3.01339L39.7066 42.5966Z"/>
</mask>
<path d="M50.7315 0.286599C50.569 0.146185 50.3713 0.0528753 50.1596 0.0167663C49.9479 -0.0193427 49.7304 0.0031245 49.5306 0.0817367L1.80939 18.7572C1.32292 18.946 0.911001 19.2879 0.635731 19.7312C0.360462 20.1745 0.236756 20.6953 0.283258 21.2151C0.329761 21.7349 0.543952 22.2254 0.893548 22.6129C1.24314 23.0003 1.7092 23.2636 2.22147 23.3631L15.3468 25.9391V40.5009C15.3467 41.0642 15.515 41.6147 15.8301 42.0817C16.1453 42.5487 16.5928 42.9109 17.1152 43.1217C17.4514 43.2566 17.8102 43.3261 18.1725 43.3265C18.5516 43.3257 18.9268 43.2485 19.2755 43.0996C19.6242 42.9508 19.9394 42.7332 20.2023 42.46L26.7955 35.6313L36.9209 44.511C37.4342 44.9637 38.0944 45.2147 38.7788 45.2174C39.0777 45.2161 39.3747 45.1692 39.6595 45.0785C40.1257 44.9309 40.545 44.6636 40.8755 44.3033C41.2061 43.943 41.4363 43.5023 41.5433 43.0251L51.1082 1.44042C51.1561 1.23201 51.1464 1.0145 51.08 0.811218C51.0136 0.607939 50.8931 0.426576 50.7315 0.286599ZM2.16025 21.046C2.14644 20.9321 2.1721 20.8169 2.23295 20.7196C2.2938 20.6223 2.38616 20.5489 2.49462 20.5115L43.6202 4.41681L16.0697 24.1613L2.58646 21.5146C2.47217 21.4978 2.36723 21.442 2.28951 21.3565C2.2118 21.2711 2.16611 21.1613 2.16025 21.046ZM18.8483 41.1508C18.7181 41.2849 18.5509 41.3773 18.368 41.4161C18.1851 41.4549 17.9948 41.4384 17.8213 41.3687C17.6479 41.299 17.499 41.1793 17.3938 41.0247C17.2886 40.8702 17.2318 40.6878 17.2306 40.5009V27.2437L25.3733 34.3785L18.8483 41.1508ZM39.7066 42.5966C39.6702 42.7565 39.5926 42.9041 39.4816 43.0248C39.3706 43.1456 39.23 43.2352 39.0738 43.2849C38.9175 43.3346 38.7509 43.3427 38.5906 43.3083C38.4302 43.2739 38.2816 43.1982 38.1595 43.0887L17.8028 25.2374L48.8147 3.01339L39.7066 42.5966Z" fill="#40312C"/>
<path d="M50.7315 0.286599L55.9682 -5.7613L55.9627 -5.76602L50.7315 0.286599ZM49.5306 0.0817367L52.446 7.53158L52.4527 7.52897L52.4593 7.52635L49.5306 0.0817367ZM1.80939 18.7572L4.70428 26.215L4.71457 26.211L4.72485 26.207L1.80939 18.7572ZM2.22147 23.3631L3.76223 15.5128L3.75436 15.5113L3.7465 15.5098L2.22147 23.3631ZM15.3468 25.9391H23.3468V19.3567L16.8875 18.0889L15.3468 25.9391ZM15.3468 40.5009L23.3468 40.502V40.5009H15.3468ZM17.1152 43.1217L14.1219 50.5406L14.1292 50.5435L14.1365 50.5465L17.1152 43.1217ZM18.1725 43.3265L18.1624 51.3265L18.1766 51.3266L18.1908 51.3265L18.1725 43.3265ZM20.2023 42.46L14.4471 36.9032L14.4373 36.9134L20.2023 42.46ZM26.7955 35.6313L32.0703 29.6165L26.3371 24.5886L21.0403 30.0745L26.7955 35.6313ZM36.9209 44.511L42.2125 38.511L42.2041 38.5036L42.1957 38.4963L36.9209 44.511ZM38.7788 45.2174L38.7472 53.2173L38.7807 53.2175L38.8143 53.2173L38.7788 45.2174ZM39.6595 45.0785L37.245 37.4515L37.2377 37.4538L37.2305 37.4562L39.6595 45.0785ZM41.5433 43.0251L33.7469 41.2319L33.7419 41.2535L33.737 41.2752L41.5433 43.0251ZM51.1082 1.44042L58.9047 3.23369L58.9049 3.23252L51.1082 1.44042ZM2.16025 21.046L10.1499 20.6399L10.1357 20.3606L10.1021 20.083L2.16025 21.046ZM2.49462 20.5115L5.10311 28.0743L5.25778 28.0209L5.41014 27.9613L2.49462 20.5115ZM43.6202 4.41681L48.2803 10.9194L40.7047 -3.033L43.6202 4.41681ZM16.0697 24.1613L14.5287 32.0115L17.9204 32.6773L20.7299 30.6638L16.0697 24.1613ZM2.58646 21.5146L4.12743 13.6644L3.93748 13.6271L3.74596 13.5991L2.58646 21.5146ZM18.8483 41.1508L24.5885 46.7231L24.5989 46.7123L24.6093 46.7015L18.8483 41.1508ZM17.2306 40.5009H9.23059V40.527L9.23076 40.5531L17.2306 40.5009ZM17.2306 27.2437L22.5028 21.2267L9.23059 9.59721V27.2437H17.2306ZM25.3733 34.3785L31.1343 39.9292L36.9539 33.8892L30.6455 28.3616L25.3733 34.3785ZM39.7066 42.5966L31.9103 40.8026L31.9084 40.8111L31.9064 40.8196L39.7066 42.5966ZM38.1595 43.0887L43.4994 37.1317L43.4669 37.1026L43.4341 37.0738L38.1595 43.0887ZM17.8028 25.2374L13.1428 18.7348L4.94948 24.6063L12.5282 31.2523L17.8028 25.2374ZM48.8147 3.01339L56.611 4.80732L61.3566 -15.8166L44.1547 -3.48927L48.8147 3.01339ZM55.9627 -5.76602C54.6964 -6.8605 53.1548 -7.58785 51.5049 -7.86931L48.8143 7.90285C47.5877 7.6936 46.4417 7.15287 45.5002 6.33922L55.9627 -5.76602ZM51.5049 -7.86931C49.8549 -8.15077 48.1594 -7.97565 46.6018 -7.36288L52.4593 7.52635C51.3014 7.9819 50.0409 8.11209 48.8143 7.90285L51.5049 -7.86931ZM46.6151 -7.3681L-1.10606 11.3073L4.72485 26.207L52.446 7.53158L46.6151 -7.3681ZM-1.08549 11.2993C-3.18914 12.1159 -4.97038 13.5941 -6.16073 15.5112L7.43219 23.9512C6.79238 24.9816 5.83497 25.7761 4.70428 26.215L-1.08549 11.2993ZM-6.16073 15.5112C-7.35107 17.4283 -7.886 19.6804 -7.68491 21.928L8.25143 20.5022C8.35952 21.7103 8.07199 22.9207 7.43219 23.9512L-6.16073 15.5112ZM-7.68491 21.928C-7.48383 24.1756 -6.55761 26.2969 -5.04586 27.9723L6.83295 17.2534C7.64551 18.1539 8.14335 19.2941 8.25143 20.5022L-7.68491 21.928ZM-5.04586 27.9723C-3.5341 29.6476 -1.51874 30.7862 0.696448 31.2164L3.7465 15.5098C4.93715 15.741 6.02039 16.3529 6.83295 17.2534L-5.04586 27.9723ZM0.680721 31.2133L13.806 33.7894L16.8875 18.0889L3.76223 15.5128L0.680721 31.2133ZM7.3468 25.9391V40.5009H23.3468V25.9391H7.3468ZM7.3468 40.4997C7.3465 42.6581 7.99136 44.7673 9.1986 46.5564L22.4617 37.6071C23.0387 38.4622 23.3469 39.4704 23.3468 40.502L7.3468 40.4997ZM9.1986 46.5564C10.4058 48.3456 12.1203 49.733 14.1219 50.5406L20.1085 35.7028C21.0652 36.0888 21.8847 36.7519 22.4617 37.6071L9.1986 46.5564ZM14.1365 50.5465C15.4167 51.0601 16.7831 51.3248 18.1624 51.3265L18.1826 35.3265C18.8374 35.3274 19.4861 35.4531 20.0939 35.6969L14.1365 50.5465ZM18.1908 51.3265C19.6434 51.3232 21.0805 51.0276 22.4165 50.4572L16.1344 35.7421C16.773 35.4695 17.4599 35.3282 18.1542 35.3266L18.1908 51.3265ZM22.4165 50.4572C23.7525 49.8869 24.96 49.0535 25.9672 48.0066L14.4373 36.9134C14.9187 36.413 15.4959 36.0147 16.1344 35.7421L22.4165 50.4572ZM25.9575 48.0168L32.5508 41.188L21.0403 30.0745L14.4471 36.9032L25.9575 48.0168ZM21.5208 41.646L31.6462 50.5257L42.1957 38.4963L32.0703 29.6165L21.5208 41.646ZM31.6294 50.5109C33.5959 52.2453 36.1252 53.207 38.7472 53.2173L38.8104 37.2175C40.0637 37.2224 41.2725 37.6821 42.2125 38.511L31.6294 50.5109ZM38.8143 53.2173C39.9255 53.2124 41.0296 53.0382 42.0885 52.7008L37.2305 37.4562C37.7198 37.3002 38.2299 37.2198 38.7434 37.2175L38.8143 53.2173ZM42.074 52.7054C43.8744 52.1354 45.4938 51.1031 46.7705 49.7115L34.9805 38.895C35.5961 38.2241 36.3769 37.7264 37.245 37.4515L42.074 52.7054ZM46.7705 49.7115C48.0472 48.32 48.9365 46.6178 49.3495 44.7751L33.737 41.2752C33.9362 40.3867 34.365 39.566 34.9805 38.895L46.7705 49.7115ZM49.3397 44.8184L58.9047 3.23369L43.3118 -0.352844L33.7469 41.2319L49.3397 44.8184ZM58.9049 3.23252C59.2783 1.60798 59.2022 -0.0875314 58.6848 -1.672L43.4752 3.29443C43.0905 2.11653 43.0339 0.856051 43.3115 -0.35168L58.9049 3.23252ZM58.6848 -1.672C58.1675 -3.25647 57.2283 -4.67017 55.9682 -5.7613L45.4948 6.3345C44.558 5.52333 43.8598 4.47235 43.4752 3.29443L58.6848 -1.672ZM10.1021 20.083C10.3086 21.7858 9.92496 23.508 9.01525 24.9623L-4.54936 16.4769C-5.58077 18.1257 -6.01569 20.0783 -5.78157 22.009L10.1021 20.083ZM9.01525 24.9623C8.10551 26.4166 6.72467 27.515 5.10311 28.0743L-0.113867 12.9487C-1.95236 13.5828 -3.51792 14.8281 -4.54936 16.4769L9.01525 24.9623ZM5.41014 27.9613L46.5357 11.8666L40.7047 -3.033L-0.420893 13.0616L5.41014 27.9613ZM38.96 -2.08572L11.4095 17.6588L20.7299 30.6638L48.2803 10.9194L38.96 -2.08572ZM17.6107 16.3111L4.12743 13.6644L1.04549 29.3648L14.5287 32.0115L17.6107 16.3111ZM3.74596 13.5991C5.4631 13.8506 7.03992 14.6898 8.20769 15.9737L-3.62866 26.7394C-2.30546 28.1942 -0.51875 29.1451 1.42696 29.4301L3.74596 13.5991ZM8.20769 15.9737C9.37545 17.2576 10.0618 18.9067 10.1499 20.6399L-5.82944 21.4521C-5.72961 23.416 -4.95186 25.2846 -3.62866 26.7394L8.20769 15.9737ZM13.1081 35.5785C14.0839 34.5733 15.3367 33.8812 16.7073 33.5904L20.0287 49.2418C21.765 48.8733 23.3523 47.9965 24.5885 46.7231L13.1081 35.5785ZM16.7073 33.5904C18.0778 33.2995 19.5037 33.4231 20.8036 33.9454L14.839 48.792C16.4859 49.4537 18.2925 49.6103 20.0287 49.2418L16.7073 33.5904ZM20.8036 33.9454C22.1035 34.4676 23.2187 35.3648 24.0071 36.523L10.7806 45.5264C11.7794 46.9937 13.1922 48.1304 14.839 48.792L20.8036 33.9454ZM24.0071 36.523C24.7954 37.6812 25.2213 39.0477 25.2304 40.4486L9.23076 40.5531C9.24236 42.3279 9.78186 44.0592 10.7806 45.5264L24.0071 36.523ZM25.2306 40.5009V27.2437H9.23059V40.5009H25.2306ZM11.9584 33.2606L20.1011 40.3955L30.6455 28.3616L22.5028 21.2267L11.9584 33.2606ZM19.6122 28.8278L13.0873 35.6L24.6093 46.7015L31.1343 39.9292L19.6122 28.8278ZM31.9064 40.8196C32.1794 39.6214 32.7605 38.5152 33.5922 37.6105L45.371 48.4392C46.4247 47.293 47.1609 45.8916 47.5067 44.3736L31.9064 40.8196ZM33.5922 37.6105C34.424 36.7057 35.4776 36.0339 36.6486 35.6614L41.4989 50.9085C42.9825 50.4365 44.3172 49.5854 45.371 48.4392L33.5922 37.6105ZM36.6486 35.6614C37.8196 35.2889 39.0676 35.2285 40.2693 35.4864L36.9118 51.1302C38.4342 51.4569 40.0154 51.3804 41.4989 50.9085L36.6486 35.6614ZM40.2693 35.4864C41.471 35.7443 42.5844 36.3115 43.4994 37.1317L32.8197 49.0457C33.9789 50.0849 35.3895 50.8034 36.9118 51.1302L40.2693 35.4864ZM43.4341 37.0738L23.0774 19.2225L12.5282 31.2523L32.8849 49.1036L43.4341 37.0738ZM22.4628 31.7401L53.4747 9.51604L44.1547 -3.48927L13.1428 18.7348L22.4628 31.7401ZM41.0185 1.21946L31.9103 40.8026L47.5029 44.3905L56.611 4.80732L41.0185 1.21946Z" fill="#40312C" mask="url(#path-1-inside-1_30_367)"/>
</svg>
